#!OML:ASF H:\LiuWeirdWalks\Patient Classification 1\Patient 1\Session 1\male.ASF
:FULLY-SPECIFIED
:DEGREES
955
root -1.20275 18.0235 11.9357 2.68965 -1.51421 -10.1147
lowerback 14.2379 -1.92171 -7.8296
upperback 1.30186 -4.24972 -6.79759
thorax -6.58114 -1.94482 -2.0098
lowerneck -8.35448 5.64948 7.85448
upperneck 19.8289 3.97392 12.8368
head 7.48696 3.59013 3.28323
rclavicle 1.43125e-014 9.85972e-014
rhumerus -7.4329 -18.244 -4.49628
rradius 44.1755
rwrist -26.8441
rhand -27.802 -9.47907
rfingers 7.12502
rthumb -1.19465 -39.4555
lclavicle 1.43125e-014 9.85972e-014
lhumerus -38.78 32.2224 26.3854
lradius 38.3214
lwrist 9.5772
lhand -16.2904 2.54
lfingers 7.12502
lthumb 9.91996 32.2863
rfemur -0.064758 -9.38444 35.7211
rtibia 29.614
rfoot -8.99038 -13.8656
rtoes -13.5343
lfemur -36.9326 5.42534 6.97599
ltibia 38.6375
lfoot -6.71627 11.9106
ltoes -17.1499
956
root -1.16893 18.0133 12.0084 2.66606 -1.50027 -10.3804
lowerback 14.1935 -1.91103 -7.54094
upperback 1.30306 -4.18345 -6.7681
thorax -6.57385 -1.92124 -2.15165
lowerneck -8.36218 5.60077 7.86792
upperneck 19.893 3.87 12.9679
head 7.51206 3.55711 3.31887
rclavicle 7.95139e-016 9.54166e-015
rhumerus -7.21862 -18.5139 -4.08394
rradius 44.1644
rwrist -26.8677
rhand -27.9084 -9.01026
rfingers 7.12502
rthumb -1.29749 -38.9861
lclavicle 7.95139e-016 9.54166e-015
lhumerus -39.0495 32.4911 26.7544
lradius 38.1505
lwrist 9.38022
lhand -16.2125 2.41767
lfingers 7.12502
lthumb 9.99512 32.1603
rfemur 0.260984 -9.5149 35.7788
rtibia 29.5143
rfoot -8.96533 -13.6529
rtoes -13.6382
lfemur -36.9235 5.48294 7.20224
ltibia 38.2284
lfoot -6.74083 12.0797
ltoes -17.175
957
root -1.13383 18.0027 12.0823 2.64239 -1.48277 -10.6214
lowerback 14.1544 -1.8997 -7.26124
upperback 1.30206 -4.11914 -6.74243
thorax -6.57097 -1.89821 -2.29237
lowerneck -8.37918 5.55003 7.88567
upperneck 19.9675 3.76201 13.0874
head 7.54298 3.52244 3.35047
rclavicle 2.06736e-014 -1.90833e-014
rhumerus -6.98642 -18.7944 -3.70077
rradius 44.1282
rwrist -26.9032
rhand -28.0085 -8.68471
rfingers 7.12502
rthumb -1.39413 -38.6599
lclavicle 2.06736e-014 -1.90833e-014
lhumerus -39.3004 32.7364 27.1299
lradius 38.0121
lwrist 9.16801
lhand -16.1238 2.31641
lfingers 7.12502
lthumb 10.0807 32.055
rfemur 0.588105 -9.63986 35.8103
rtibia 29.422
rfoot -8.94135 -13.4699
rtoes -13.763
lfemur -36.8905 5.5289 7.39102
ltibia 37.7716
lfoot -6.76291 12.3078
ltoes -17.1646
958
root -1.09757 17.9919 12.1578 2.6194 -1.46016 -10.8183
lowerback 14.1129 -1.88421 -7.01369
upperback 1.30263 -4.05433 -6.72097
thorax -6.56268 -1.87416 -2.42021
lowerneck -8.41655 5.49833 7.89818
upperneck 20.057 3.65037 13.1984
head 7.58282 3.48658 3.38121
rclavicle -7.95139e-016 5.08889e-014
rhumerus -6.75363 -19.0353 -3.31404
rradius 44.0619
rwrist -26.9086
rhand -28.0268 -8.3836
rfingers 7.12502
rthumb -1.41178 -38.3587
lclavicle -7.95139e-016 5.08889e-014
lhumerus -39.5282 32.9007 27.5514
lradius 37.9471
lwrist 9.00841
lhand -16.0467 2.28895
lfingers 7.12502
lthumb 10.1551 32.0239
rfemur 0.919551 -9.75615 35.797
rtibia 29.3335
rfoot -8.92156 -13.3224
rtoes -13.8832
lfemur -36.8283 5.55059 7.52617
ltibia 37.2621
lfoot -6.78688 12.5895
ltoes -17.1242
959
root -1.06026 17.9805 12.2349 2.60013 -1.43492 -10.9903
lowerback 14.0607 -1.86789 -6.78078
upperback 1.31646 -3.98816 -6.6985
thorax -6.5326 -1.84957 -2.53962
lowerneck -8.51937 5.45119 7.91265
upperneck 20.1775 3.53618 13.2861
head 7.64579 3.45175 3.40754
rclavicle -2.38542e-015 7.63333e-014
rhumerus -6.52616 -19.3018 -2.92079
rradius 43.913
rwrist -26.4618
rhand -27.8977 -8.3768
rfingers 7.12502
rthumb -1.28706 -38.3527
lclavicle -2.38542e-015 7.63333e-014
lhumerus -39.7121 33.0461 28.0004
lradius 37.9116
lwrist 8.85861
lhand -15.9986 2.2612
lfingers 7.12502
lthumb 10.2015 31.9938
rfemur 1.25214 -9.8445 35.7655
rtibia 29.2497
rfoot -8.91185 -13.2229
rtoes -13.9772
lfemur -36.7394 5.55094 7.6336
ltibia 36.7027
lfoot -6.80946 12.9027
ltoes -17.0603
960
root -1.02107 17.9692 12.3144 2.5861 -1.39581 -11.1022
lowerback 13.9932 -1.85929 -6.59091
upperback 1.33032 -3.93791 -6.68569
thorax -6.49143 -1.83173 -2.64299
lowerneck -8.59862 5.41367 7.9468
upperneck 20.2822 3.4425 13.3446
head 7.69976 3.42395 3.42128
rclavicle -8.74653e-015 9.54166e-015
rhumerus -6.28441 -19.5709 -2.56331
rradius 43.7343
rwrist -25.9367
rhand -27.5956 -8.12699
rfingers 7.12502
rthumb -0.995318 -38.1044
lclavicle -8.74653e-015 9.54166e-015
lhumerus -39.8985 33.1423 28.4453
lradius 37.9297
lwrist 8.76483
lhand -15.979 2.26948
lfingers 7.12502
lthumb 10.2204 32.0012
rfemur 1.58818 -9.93633 35.6652
rtibia 29.1667
rfoot -8.92221 -13.1477
rtoes -14.0687
lfemur -36.6281 5.50489 7.67108
ltibia 36.0989
lfoot -6.83569 13.2481
ltoes -16.9955
